<svg width="50" height="50" viewBox="0 0 50 50" fill="none" xmlns="http://www.w3.org/2000/svg">
<path d="M20.2552 4.00008C27.4709 4.00608 41.5932 4.37745 41.5932 18.6652C41.5932 33.0972 28.2984 34.0703 20.0387 34.0703V46H9V4L20.2552 4.00008ZM28.4481 24.5132H19.9193L20.6556 27.3226H28.4481C29.2239 27.3226 29.8528 26.6937 29.8528 25.9179C29.8528 25.1421 29.2239 24.5132 28.4481 24.5132ZM30.5544 21.0715H26.7907L27.527 23.8809H30.5544C31.3302 23.8809 31.9591 23.252 31.9591 22.4762C31.9591 21.7004 31.3302 21.0715 30.5544 21.0715ZM28.3121 17.6298H19.7833L20.5196 20.4393H28.3121C29.0879 20.4393 29.7168 19.8103 29.7168 19.0345C29.7168 18.2587 29.0879 17.6298 28.3121 17.6298ZM21.3112 14.1881H18.5076L17.6131 16.9976H21.3112C22.087 16.9976 22.7159 16.3687 22.7159 15.5929C22.7159 14.8171 22.087 14.1881 21.3112 14.1881ZM28.5842 10.7465H20.6778L19.7833 13.5559H28.5842C29.36 13.5559 29.9889 12.927 29.9889 12.1512C29.9889 11.3754 29.36 10.7465 28.5842 10.7465Z" fill="black"/>
<path d="M28.4482 24.5137C29.224 24.5137 29.8525 25.1422 29.8525 25.918C29.8525 26.6937 29.224 27.3222 28.4482 27.3223H20.6553L19.9189 24.5137H28.4482Z" fill="#92DDEB"/>
<path d="M30.5547 21.0713C31.3303 21.0715 31.959 21.7009 31.959 22.4766C31.9588 23.2521 31.3302 23.8807 30.5547 23.8809H27.5273L26.791 21.0713H30.5547Z" fill="#92DDEB"/>
<path d="M28.3125 17.6299C29.088 17.6301 29.7166 18.2587 29.7168 19.0342C29.7168 19.8098 29.0881 20.4392 28.3125 20.4395H20.5195L19.7832 17.6299H28.3125Z" fill="#92DDEB"/>
<path d="M21.3115 14.1885C22.0871 14.1887 22.7158 14.8171 22.7158 15.5928C22.7158 16.3685 22.0872 16.9979 21.3115 16.998H17.6133L18.5078 14.1885H21.3115Z" fill="#92DDEB"/>
<path d="M28.584 10.7461C29.3598 10.7461 29.9893 11.3756 29.9893 12.1514C29.9892 12.9271 29.3597 13.5557 28.584 13.5557H19.7832L20.6777 10.7461H28.584Z" fill="#92DDEB"/>
</svg>
